<?xml version="1.0" standalone="no"?><!DOCTYPE svg PUBLIC "-//W3C//DTD SVG 1.1//EN" "http://www.w3.org/Graphics/SVG/1.1/DTD/svg11.dtd"><svg t="1626887061909" class="icon" viewBox="0 0 1024 1024" version="1.1" xmlns="http://www.w3.org/2000/svg" p-id="8630" xmlns:xlink="http://www.w3.org/1999/xlink" width="200" height="200"><defs><style type="text/css">@font-face { font-family: feedback-iconfont; src: url("//at.alicdn.com/t/font_1031158_1uhr8ri0pk5.eot?#iefix") format("embedded-opentype"), url("//at.alicdn.com/t/font_1031158_1uhr8ri0pk5.woff2") format("woff2"), url("//at.alicdn.com/t/font_1031158_1uhr8ri0pk5.woff") format("woff"), url("//at.alicdn.com/t/font_1031158_1uhr8ri0pk5.ttf") format("truetype"), url("//at.alicdn.com/t/font_1031158_1uhr8ri0pk5.svg#iconfont") format("svg"); }
</style></defs><path d="M128 512m-42.666667 0a42.666667 42.666667 0 1 0 85.333334 0 42.666667 42.666667 0 1 0-85.333334 0Z" fill="#333333" p-id="8631"></path><path d="M128 213.333333m-42.666667 0a42.666667 42.666667 0 1 0 85.333334 0 42.666667 42.666667 0 1 0-85.333334 0Z" fill="#333333" p-id="8632"></path><path d="M128 810.666667m-42.666667 0a42.666667 42.666667 0 1 0 85.333334 0 42.666667 42.666667 0 1 0-85.333334 0Z" fill="#333333" p-id="8633"></path><path d="M256 469.333333m42.666667 0l597.333333 0q42.666667 0 42.666667 42.666667l0 0q0 42.666667-42.666667 42.666667l-597.333333 0q-42.666667 0-42.666667-42.666667l0 0q0-42.666667 42.666667-42.666667Z" fill="#333333" p-id="8634"></path><path d="M256 170.666667m42.666667 0l597.333333 0q42.666667 0 42.666667 42.666666l0 0q0 42.666667-42.666667 42.666667l-597.333333 0q-42.666667 0-42.666667-42.666667l0 0q0-42.666667 42.666667-42.666666Z" fill="#333333" p-id="8635"></path><path d="M256 768m42.666667 0l597.333333 0q42.666667 0 42.666667 42.666667l0 0q0 42.666667-42.666667 42.666666l-597.333333 0q-42.666667 0-42.666667-42.666666l0 0q0-42.666667 42.666667-42.666667Z" fill="#333333" p-id="8636"></path></svg>