<?xml version="1.0" standalone="no"?><!DOCTYPE svg PUBLIC "-//W3C//DTD SVG 1.1//EN" "http://www.w3.org/Graphics/SVG/1.1/DTD/svg11.dtd"><svg t="1626886887610" class="icon" viewBox="0 0 1024 1024" version="1.1" xmlns="http://www.w3.org/2000/svg" p-id="2089" xmlns:xlink="http://www.w3.org/1999/xlink" width="200" height="200"><defs><style type="text/css">@font-face { font-family: feedback-iconfont; src: url("//at.alicdn.com/t/font_1031158_1uhr8ri0pk5.eot?#iefix") format("embedded-opentype"), url("//at.alicdn.com/t/font_1031158_1uhr8ri0pk5.woff2") format("woff2"), url("//at.alicdn.com/t/font_1031158_1uhr8ri0pk5.woff") format("woff"), url("//at.alicdn.com/t/font_1031158_1uhr8ri0pk5.ttf") format("truetype"), url("//at.alicdn.com/t/font_1031158_1uhr8ri0pk5.svg#iconfont") format("svg"); }
</style></defs><path d="M571.01312 523.776l311.3472-311.35232c15.7184-15.71328 15.7184-41.6256 0-57.344l-1.69472-1.69984c-15.7184-15.71328-41.6256-15.71328-57.34912 0l-311.3472 311.77728-311.35232-311.77728c-15.7184-15.71328-41.63072-15.71328-57.344 0l-1.69984 1.69984a40.0128 40.0128 0 0 0 0 57.344L452.92544 523.776l-311.35232 311.35744c-15.71328 15.71328-15.71328 41.63072 0 57.33888l1.69984 1.69984c15.71328 15.7184 41.6256 15.7184 57.344 0l311.35232-311.35232 311.3472 311.35232c15.72352 15.7184 41.63072 15.7184 57.34912 0l1.69472-1.69984c15.7184-15.70816 15.7184-41.6256 0-57.33888l-311.3472-311.35744z" p-id="2090" fill="#333333"></path></svg>